<svg version="1.1" id="Layer_1" xmlns="http://www.w3.org/2000/svg" xmlns:xlink="http://www.w3.org/1999/xlink" x="0px" y="0px"
	 width="100%" viewBox="0 0 1024 1024" enable-background="new 0 0 1024 1024" xml:space="preserve">
<path fill="#000000" opacity="1.000000" stroke="none" 
	d="
M498.000000,1025.000000 
	C332.000000,1025.000000 166.500000,1025.000000 1.000000,1025.000000 
	C1.000000,683.666687 1.000000,342.333344 1.000000,1.000000 
	C342.333344,1.000000 683.666687,1.000000 1025.000000,1.000000 
	C1025.000000,342.333344 1025.000000,683.666687 1025.000000,1025.000000 
	C849.500000,1025.000000 674.000000,1025.000000 498.000000,1025.000000 
M523.056580,354.933258 
	C523.056580,354.933258 523.122559,354.922058 522.835876,354.287750 
	C522.388062,354.250702 521.940186,354.213654 521.238159,353.746063 
	C520.999084,353.178528 520.759949,352.610992 520.073364,351.565979 
	C519.722900,351.329437 519.372498,351.092896 519.030273,350.958405 
	C519.030273,350.958405 519.132263,350.949707 518.968689,350.428558 
	C518.668335,350.241150 518.367981,350.053711 518.052979,349.932953 
	C518.052979,349.932953 518.118103,349.912537 517.855164,349.233490 
	C517.387329,349.163239 516.919556,349.092987 516.475708,349.076233 
	C516.475708,349.076233 516.524048,349.043121 515.983032,348.429993 
	C515.475281,348.304932 514.967529,348.179901 514.485718,348.009094 
	C514.485718,348.009094 514.474609,348.058105 514.068054,347.561432 
	C513.726685,347.327209 513.385376,347.093018 513.041443,346.927429 
	C513.041443,346.927429 513.101257,346.893646 512.784851,346.173370 
	C512.008911,346.129883 511.233002,346.086395 510.471802,346.071899 
	C510.471802,346.071899 510.503357,346.064056 509.953918,345.359650 
	C507.553162,345.299408 505.152435,345.239197 502.072876,344.996063 
	C501.143097,345.052551 500.213287,345.109070 498.361420,345.077850 
	C496.408234,345.413483 494.455017,345.749115 492.531677,346.086426 
	C492.531677,346.086426 492.547119,346.060822 491.765350,345.990997 
	C491.141571,346.303772 490.517761,346.616547 489.989288,346.947357 
	C489.989288,346.947357 490.006927,346.851929 489.275818,346.970001 
	C488.677307,347.328796 488.078766,347.687622 487.525818,348.076874 
	C487.525818,348.076874 487.547180,348.026428 486.820648,347.967133 
	C486.507446,348.283264 486.194214,348.599396 485.950409,348.926453 
	C485.950409,348.926453 485.958618,348.856628 485.353394,349.076996 
	C485.071350,349.400574 484.789307,349.724152 483.980652,350.376343 
	C483.303223,351.101105 482.688110,351.898682 481.939026,352.539673 
	C471.563599,361.417725 470.982422,376.472443 475.853912,385.639404 
	C481.868561,396.957581 493.015198,402.210815 506.236206,399.961456 
	C518.299316,397.909119 526.655823,388.984955 528.676147,379.905731 
	C528.431213,374.768372 528.186218,369.630981 527.929260,364.527954 
	C527.929260,364.527954 527.962708,364.542145 528.026123,363.757355 
	C527.708191,363.136017 527.390259,362.514648 527.056580,361.988953 
	C527.056580,361.988953 527.152344,362.004303 527.028992,361.275116 
	C526.665283,360.684906 526.301575,360.094727 526.096436,359.026031 
	C525.723755,358.533508 525.351013,358.040985 525.035217,356.824432 
	C524.722046,356.509979 524.408936,356.195496 524.058899,355.951782 
	C524.058899,355.951782 524.131958,355.919830 523.978699,355.395599 
	C523.673523,355.219299 523.368347,355.042969 523.056580,354.933258 
M450.980591,375.429047 
	C450.680389,375.242035 450.380219,375.054993 450.046509,374.942200 
	C450.046509,374.942200 450.117920,374.902985 449.851349,374.228821 
	C449.384888,374.161377 448.918396,374.093964 448.472534,374.071503 
	C448.472534,374.071503 448.513092,374.043152 448.068268,373.566772 
	C447.720367,373.328125 447.372467,373.089478 447.038147,372.923004 
	C447.038147,372.923004 447.110199,372.908691 446.881683,372.297974 
	C446.258331,372.150543 445.634949,372.003113 445.021545,371.948425 
	C445.021545,371.948425 445.114258,371.938049 444.890594,371.299377 
	C443.940613,370.818298 442.990601,370.337250 442.040436,369.940369 
	C442.040436,369.940369 442.124603,369.939972 441.849365,369.265717 
	C441.382019,369.187134 440.914703,369.108521 440.468323,369.082367 
	C440.468323,369.082367 440.516357,369.052704 440.033936,368.488800 
	C439.355957,368.274048 438.678009,368.059296 438.015045,367.941772 
	C438.015045,367.941772 438.112183,367.926300 437.818420,367.229645 
	C424.763519,361.187744 411.246552,360.354767 396.941589,363.862427 
	C396.941589,363.862427 396.848206,364.330231 396.468018,364.258453 
	C396.468018,364.258453 396.156555,364.487946 395.441498,364.124908 
	C392.846985,365.032501 390.071106,365.617554 387.712280,366.944183 
	C385.623108,368.119141 383.997833,370.119019 382.167786,371.754761 
	C384.417480,372.829559 386.577942,374.190887 388.933807,374.924866 
	C395.726654,377.041351 402.763489,378.466187 409.401794,380.966370 
	C420.444916,385.125641 427.638123,393.917267 433.001312,403.851074 
	C434.958466,407.476135 435.324585,413.007874 434.183105,417.036987 
	C431.905273,425.076813 427.636566,432.533386 425.034180,440.506317 
	C422.783081,447.402924 421.699890,454.680786 419.337433,462.163147 
	C418.876678,463.841187 418.093933,465.503113 418.009094,467.199951 
	C417.562286,476.136444 417.232330,485.080353 417.018707,494.025391 
	C416.983490,495.500549 417.726318,496.994293 418.006927,498.490784 
	C418.006927,498.490784 418.105957,498.484802 418.033630,499.442871 
	C418.395050,501.788879 418.756500,504.134918 419.009705,506.500458 
	C419.009705,506.500458 419.113251,506.480164 419.025909,507.396484 
	C419.414062,508.725372 419.802216,510.054260 420.047913,512.156616 
	C420.717010,515.159241 421.048218,518.288635 422.118774,521.140564 
	C425.299652,529.614441 428.441223,538.133484 432.266846,546.322388 
	C434.223877,550.511475 438.371521,550.071655 440.495728,545.940430 
	C441.220184,544.531433 441.626190,542.919617 441.957489,541.353882 
	C444.273987,530.407227 446.378052,519.413391 448.846649,508.501678 
	C452.433228,492.648529 460.572021,478.922729 470.464691,466.403564 
	C475.346710,460.225342 481.617218,454.590729 490.902313,455.947784 
	C495.757477,456.657379 500.604980,457.573303 505.489197,457.901581 
	C521.501831,458.977844 536.703186,455.999084 550.093323,446.877350 
	C554.759827,443.698425 560.208557,440.497986 561.691162,433.073975 
	C558.862671,433.230560 556.408447,432.963074 554.181519,433.553253 
	C535.735474,438.441772 517.900269,437.046844 501.746582,426.702240 
	C490.219910,419.320648 482.082275,408.067810 472.971985,397.969543 
	C467.026855,391.379669 460.219513,385.567688 453.937714,378.742676 
	C453.633057,378.455017 453.328400,378.167358 453.021820,377.981018 
	C453.021820,377.981018 453.123169,377.982666 452.965210,377.439087 
	C452.652557,377.249542 452.339905,377.060028 452.027344,376.972687 
	C452.027344,376.972687 452.129547,376.972290 451.963867,376.437439 
	C451.655731,376.246918 451.347595,376.056366 451.039948,375.956146 
	C451.039948,375.956146 451.130219,375.955170 450.980591,375.429047 
M577.710388,304.303955 
	C570.443237,300.994965 562.898193,300.095947 555.037476,301.548859 
	C539.455566,304.428925 527.434753,325.772491 535.044800,342.230194 
	C538.611267,349.942993 543.431458,356.434814 552.057800,359.110138 
	C560.237122,361.646881 568.044678,361.736084 576.257446,358.260498 
	C585.320312,354.425140 590.355835,347.700500 592.979187,338.876373 
	C596.427124,327.278992 591.843872,311.181824 578.553894,305.005646 
	C578.553894,305.005646 578.111450,304.923584 577.710388,304.303955 
M467.062408,541.541931 
	C465.220581,543.663391 462.964478,545.561707 461.664734,547.975098 
	C460.573822,550.000671 460.061340,552.707336 460.397278,554.946716 
	C460.528351,555.820435 463.638519,556.565063 465.463593,556.792847 
	C468.229218,557.138062 471.289307,557.713806 473.820709,556.914124 
	C487.457001,552.605896 501.576111,549.159729 514.352417,542.983215 
	C527.131897,536.805176 538.956421,528.335083 550.375488,519.770996 
	C557.933472,514.102539 564.687561,507.019836 570.638245,499.633148 
	C578.956482,489.307556 585.583374,477.701630 589.862244,465.077484 
	C593.390198,454.668671 595.918030,443.924744 599.065735,433.382019 
	C601.559631,425.029114 603.495667,416.360687 607.225647,408.572968 
	C610.198853,402.365234 615.044373,396.835266 619.869507,391.777924 
	C630.712341,380.413177 640.139221,368.091461 645.267456,353.207123 
	C648.185364,344.738281 649.375122,335.652771 651.030518,326.786591 
	C651.396423,324.826874 650.815002,322.456329 649.986206,320.576324 
	C649.227051,318.854279 647.544250,317.539459 646.268494,316.045166 
	C644.807922,317.318542 642.771423,318.306091 641.975525,319.909393 
	C633.815186,336.349854 622.510864,349.954590 606.810303,359.686310 
	C587.871399,371.425201 566.671997,376.089172 544.982178,378.813324 
	C540.771729,379.342133 538.772156,380.691986 537.592896,384.504883 
	C533.165771,398.818817 522.910706,406.962708 509.010315,411.251343 
	C507.598541,411.686920 506.478516,413.068085 505.223083,414.010437 
	C506.203156,415.182343 506.989807,416.625275 508.193329,417.484009 
	C519.466553,425.527740 532.363892,426.594696 545.333801,424.501465 
	C553.899292,423.119080 562.147156,419.692963 570.489624,417.032745 
	C575.417664,415.461304 576.117371,415.726715 576.084229,420.794281 
	C575.984131,436.111328 567.730103,447.252411 556.114929,455.578094 
	C547.227051,461.948853 536.906921,466.182983 525.605286,466.974121 
	C522.431335,467.196289 520.857605,469.111511 519.857178,472.124329 
	C517.999023,477.719971 516.492371,483.658539 513.433899,488.581024 
	C507.571442,498.016388 500.804901,506.898315 494.266907,515.903503 
	C486.971527,525.951904 477.567932,533.814453 467.062408,541.541931 
z"/>
<path fill="#243D5F" opacity="1.000000" stroke="none" 
	d="
M467.325073,541.291138 
	C477.567932,533.814453 486.971527,525.951904 494.266907,515.903503 
	C500.804901,506.898315 507.571442,498.016388 513.433899,488.581024 
	C516.492371,483.658539 517.999023,477.719971 519.857178,472.124329 
	C520.857605,469.111511 522.431335,467.196289 525.605286,466.974121 
	C536.906921,466.182983 547.227051,461.948853 556.114929,455.578094 
	C567.730103,447.252411 575.984131,436.111328 576.084229,420.794281 
	C576.117371,415.726715 575.417664,415.461304 570.489624,417.032745 
	C562.147156,419.692963 553.899292,423.119080 545.333801,424.501465 
	C532.363892,426.594696 519.466553,425.527740 508.193329,417.484009 
	C506.989807,416.625275 506.203156,415.182343 505.223083,414.010437 
	C506.478516,413.068085 507.598541,411.686920 509.010315,411.251343 
	C522.910706,406.962708 533.165771,398.818817 537.592896,384.504883 
	C538.772156,380.691986 540.771729,379.342133 544.982178,378.813324 
	C566.671997,376.089172 587.871399,371.425201 606.810303,359.686310 
	C622.510864,349.954590 633.815186,336.349854 641.975525,319.909393 
	C642.771423,318.306091 644.807922,317.318542 646.268494,316.045166 
	C647.544250,317.539459 649.227051,318.854279 649.986206,320.576324 
	C650.815002,322.456329 651.396423,324.826874 651.030518,326.786591 
	C649.375122,335.652771 648.185364,344.738281 645.267456,353.207123 
	C640.139221,368.091461 630.712341,380.413177 619.869507,391.777924 
	C615.044373,396.835266 610.198853,402.365234 607.225647,408.572968 
	C603.495667,416.360687 601.559631,425.029114 599.065735,433.382019 
	C595.918030,443.924744 593.390198,454.668671 589.862244,465.077484 
	C585.583374,477.701630 578.956482,489.307556 570.638245,499.633148 
	C564.687561,507.019836 557.933472,514.102539 550.375488,519.770996 
	C538.956421,528.335083 527.131897,536.805176 514.352417,542.983215 
	C501.576111,549.159729 487.457001,552.605896 473.820709,556.914124 
	C471.289307,557.713806 468.229218,557.138062 465.463593,556.792847 
	C463.638519,556.565063 460.528351,555.820435 460.397278,554.946716 
	C460.061340,552.707336 460.573822,550.000671 461.664734,547.975098 
	C462.964478,545.561707 465.220581,543.663391 467.325073,541.291138 
z"/>
<path fill="#E37232" opacity="1.000000" stroke="none" 
	d="
M418.105957,498.484802 
	C418.105957,498.484802 418.006927,498.490784 418.218170,498.005249 
	C418.986420,485.609833 419.543427,473.699951 420.100433,461.790100 
	C421.699890,454.680786 422.783081,447.402924 425.034180,440.506317 
	C427.636566,432.533386 431.905273,425.076813 434.183105,417.036987 
	C435.324585,413.007874 434.958466,407.476135 433.001312,403.851074 
	C427.638123,393.917267 420.444916,385.125641 409.401794,380.966370 
	C402.763489,378.466187 395.726654,377.041351 388.933807,374.924866 
	C386.577942,374.190887 384.417480,372.829559 382.167786,371.754761 
	C383.997833,370.119019 385.623108,368.119141 387.712280,366.944183 
	C390.071106,365.617554 392.846985,365.032501 395.832458,364.114014 
	C396.431671,364.178802 396.639923,364.254517 396.848206,364.330231 
	C396.848206,364.330231 396.941589,363.862427 397.554260,363.675415 
	C410.546631,361.787781 422.658112,362.496307 434.348053,367.359039 
	C435.484741,367.831879 436.851959,367.750458 438.112183,367.926300 
	C438.112183,367.926300 438.015045,367.941772 438.121674,368.286255 
	C438.990997,368.771393 439.753662,368.912048 440.516357,369.052704 
	C440.516357,369.052704 440.468323,369.082367 440.590027,369.417725 
	C441.182678,369.815399 441.653625,369.877686 442.124603,369.939941 
	C442.124603,369.939972 442.040436,369.940369 442.022156,370.267883 
	C443.040680,371.042969 444.077454,371.490509 445.114258,371.938049 
	C445.114258,371.938049 445.021545,371.948425 445.074585,372.276489 
	C445.788452,372.705902 446.449341,372.807281 447.110199,372.908691 
	C447.110199,372.908691 447.038147,372.923004 447.070587,373.261658 
	C447.573059,373.747894 448.043060,373.895538 448.513092,374.043152 
	C448.513092,374.043152 448.472534,374.071503 448.574493,374.443176 
	C449.156952,374.844269 449.637421,374.873627 450.117920,374.902985 
	C450.117920,374.902985 450.046509,374.942200 449.970764,375.251892 
	C450.306763,375.692810 450.718475,375.823975 451.130219,375.955170 
	C451.130219,375.955170 451.039948,375.956146 451.014587,376.241394 
	C451.369324,376.675232 451.749451,376.823761 452.129547,376.972290 
	C452.129547,376.972290 452.027344,376.972687 452.022247,377.243042 
	C452.385834,377.669830 452.754486,377.826233 453.123169,377.982666 
	C453.123169,377.982666 453.021820,377.981018 453.014191,378.236084 
	C453.270508,378.796539 453.534485,379.101868 453.798431,379.407227 
	C460.219513,385.567688 467.026855,391.379669 472.971985,397.969543 
	C482.082275,408.067810 490.219910,419.320648 501.746582,426.702240 
	C517.900269,437.046844 535.735474,438.441772 554.181519,433.553253 
	C556.408447,432.963074 558.862671,433.230560 561.691162,433.073975 
	C560.208557,440.497986 554.759827,443.698425 550.093323,446.877350 
	C536.703186,455.999084 521.501831,458.977844 505.489197,457.901581 
	C500.604980,457.573303 495.757477,456.657379 490.902313,455.947784 
	C481.617218,454.590729 475.346710,460.225342 470.464691,466.403564 
	C460.572021,478.922729 452.433228,492.648529 448.846649,508.501678 
	C446.378052,519.413391 444.273987,530.407227 441.957489,541.353882 
	C441.626190,542.919617 441.220184,544.531433 440.495728,545.940430 
	C438.371521,550.071655 434.223877,550.511475 432.266846,546.322388 
	C428.441223,538.133484 425.299652,529.614441 422.118774,521.140564 
	C421.048218,518.288635 420.717010,515.159241 420.173462,511.340057 
	C419.903748,509.175720 419.508484,507.827942 419.113251,506.480164 
	C419.113251,506.480164 419.009705,506.500458 419.194824,506.042419 
	C418.955322,503.217834 418.530640,500.851318 418.105957,498.484802 
z"/>
<path fill="#E37232" opacity="1.000000" stroke="none" 
	d="
M527.803955,380.239685 
	C526.655823,388.984955 518.299316,397.909119 506.236206,399.961456 
	C493.015198,402.210815 481.868561,396.957581 475.853912,385.639404 
	C470.982422,376.472443 471.563599,361.417725 481.939026,352.539673 
	C482.688110,351.898682 483.303223,351.101105 484.624268,350.191223 
	C485.498169,349.622986 485.728424,349.239807 485.958618,348.856628 
	C485.958618,348.856628 485.950409,348.926453 486.292664,349.068481 
	C486.938995,348.815796 487.243073,348.421112 487.547180,348.026428 
	C487.547180,348.026428 487.525818,348.076874 487.901062,348.162720 
	C488.853180,347.783020 489.430054,347.317444 490.006897,346.851929 
	C490.006927,346.851929 489.989288,346.947357 490.305908,347.101410 
	C491.264069,346.857239 491.905609,346.459045 492.547119,346.060822 
	C492.547119,346.060822 492.531677,346.086426 492.927246,346.252167 
	C495.309723,346.000458 497.296631,345.583008 499.283508,345.165588 
	C500.213287,345.109070 501.143097,345.052551 502.819092,345.257019 
	C505.878021,345.700043 508.190674,345.882050 510.503357,346.064056 
	C510.503357,346.064056 510.471802,346.071899 510.642395,346.444336 
	C511.575775,346.842407 512.338501,346.868042 513.101257,346.893677 
	C513.101257,346.893646 513.041443,346.927429 513.052734,347.273682 
	C513.534241,347.765991 514.004456,347.912048 514.474609,348.058105 
	C514.474609,348.058105 514.485718,348.009094 514.687378,348.400299 
	C515.434021,348.875366 515.979065,348.959259 516.524048,349.043121 
	C516.524048,349.043121 516.475708,349.076233 516.561340,349.449677 
	C517.137329,349.852905 517.627747,349.882721 518.118103,349.912537 
	C518.118103,349.912537 518.052979,349.932953 517.992920,350.246826 
	C518.332642,350.690399 518.732483,350.820038 519.132263,350.949707 
	C519.132263,350.949707 519.030273,350.958405 519.060303,351.289246 
	C519.567139,351.761200 520.044006,351.902344 520.520813,352.043457 
	C520.759949,352.610992 520.999084,353.178528 521.565186,354.250916 
	C522.302307,354.811218 522.712402,354.866638 523.122559,354.922058 
	C523.122559,354.922058 523.056580,354.933258 522.977417,355.259094 
	C523.309509,355.696594 523.720703,355.808197 524.131958,355.919830 
	C524.131958,355.919830 524.058899,355.951782 523.914917,356.293640 
	C524.173462,356.939819 524.575867,357.244110 524.978333,357.548431 
	C525.351013,358.040985 525.723755,358.533508 525.950500,359.663055 
	C526.253845,360.868134 526.703064,361.436218 527.152344,362.004303 
	C527.152344,362.004303 527.056580,361.988953 526.893799,362.311707 
	C527.141602,363.270355 527.552185,363.906250 527.962708,364.542145 
	C527.962708,364.542145 527.929260,364.527954 527.731628,364.977936 
	C527.624023,370.365173 527.713989,375.302429 527.803955,380.239685 
z"/>
<path fill="#253D60" opacity="1.000000" stroke="none" 
	d="
M578.111450,304.923584 
	C578.111450,304.923584 578.553894,305.005646 578.796997,305.376160 
	C579.446350,306.809296 579.538818,308.307373 580.310242,308.863251 
	C584.964417,312.217346 586.999939,316.950439 589.151733,322.117920 
	C590.963989,326.470093 591.594482,330.062561 589.868835,334.320984 
	C588.941895,336.608398 588.815125,339.252319 587.726196,341.435577 
	C584.952393,346.996918 583.095703,353.604156 576.133423,355.536224 
	C572.025574,356.676208 567.467468,358.040497 563.471191,357.317688 
	C556.932068,356.134949 549.415649,354.841003 544.644775,350.823242 
	C538.962097,346.037720 536.033386,338.756134 536.029663,330.048096 
	C536.021667,311.503693 551.139832,301.388672 566.901794,303.192657 
	C570.655212,303.622223 574.375793,304.338928 578.111450,304.923584 
z"/>
<path fill="#243D5F" opacity="1.000000" stroke="none" 
	d="
M577.910889,304.613770 
	C574.375793,304.338928 570.655212,303.622223 566.901794,303.192657 
	C551.139832,301.388672 536.021667,311.503693 536.029663,330.048096 
	C536.033386,338.756134 538.962097,346.037720 544.644775,350.823242 
	C549.415649,354.841003 556.932068,356.134949 563.471191,357.317688 
	C567.467468,358.040497 572.025574,356.676208 576.133423,355.536224 
	C583.095703,353.604156 584.952393,346.996918 587.726196,341.435577 
	C588.815125,339.252319 588.941895,336.608398 589.868835,334.320984 
	C591.594482,330.062561 590.963989,326.470093 589.151733,322.117920 
	C586.999939,316.950439 584.964417,312.217346 580.310242,308.863251 
	C579.538818,308.307373 579.446350,306.809296 579.021912,305.381714 
	C591.843872,311.181824 596.427124,327.278992 592.979187,338.876373 
	C590.355835,347.700500 585.320312,354.425140 576.257446,358.260498 
	C568.044678,361.736084 560.237122,361.646881 552.057800,359.110138 
	C543.431458,356.434814 538.611267,349.942993 535.044800,342.230194 
	C527.434753,325.772491 539.455566,304.428925 555.037476,301.548859 
	C562.898193,300.095947 570.443237,300.994965 577.910889,304.613770 
z"/>
<path fill="#F3CDAA" opacity="1.000000" stroke="none" 
	d="
M437.965302,367.577972 
	C436.851959,367.750458 435.484741,367.831879 434.348053,367.359039 
	C422.658112,362.496307 410.546631,361.787781 397.765564,363.564728 
	C411.246552,360.354767 424.763519,361.187744 437.965302,367.577972 
z"/>
<path fill="#F3CDAA" opacity="1.000000" stroke="none" 
	d="
M419.718933,461.976624 
	C419.543427,473.699951 418.986420,485.609833 418.269470,497.999573 
	C417.726318,496.994293 416.983490,495.500549 417.018707,494.025391 
	C417.232330,485.080353 417.562286,476.136444 418.009094,467.199951 
	C418.093933,465.503113 418.876678,463.841187 419.718933,461.976624 
z"/>
<path fill="#F3CDAA" opacity="1.000000" stroke="none" 
	d="
M528.240051,380.072693 
	C527.713989,375.302429 527.624023,370.365173 527.737610,364.960754 
	C528.186218,369.630981 528.431213,374.768372 528.240051,380.072693 
z"/>
<path fill="#F3CDAA" opacity="1.000000" stroke="none" 
	d="
M510.228638,345.711853 
	C508.190674,345.882050 505.878021,345.700043 503.158508,345.348480 
	C505.152435,345.239197 507.553162,345.299408 510.228638,345.711853 
z"/>
<path fill="#F3CDAA" opacity="1.000000" stroke="none" 
	d="
M418.069794,498.963837 
	C418.530640,500.851318 418.955322,503.217834 419.248962,506.032654 
	C418.756500,504.134918 418.395050,501.788879 418.069794,498.963837 
z"/>
<path fill="#F3CDAA" opacity="1.000000" stroke="none" 
	d="
M498.822449,345.121704 
	C497.296631,345.583008 495.309723,346.000458 492.912354,346.251312 
	C494.455017,345.749115 496.408234,345.413483 498.822449,345.121704 
z"/>
<path fill="#F3CDAA" opacity="1.000000" stroke="none" 
	d="
M445.002441,371.618713 
	C444.077454,371.490509 443.040680,371.042969 442.022247,370.225830 
	C442.990601,370.337250 443.940613,370.818298 445.002441,371.618713 
z"/>
<path fill="#F3CDAA" opacity="1.000000" stroke="none" 
	d="
M419.069580,506.938324 
	C419.508484,507.827942 419.903748,509.175720 420.244659,510.953308 
	C419.802216,510.054260 419.414062,508.725372 419.069580,506.938324 
z"/>
<path fill="#F3CDAA" opacity="1.000000" stroke="none" 
	d="
M492.156250,346.025909 
	C491.905609,346.459045 491.264069,346.857239 490.258240,347.092407 
	C490.517761,346.616547 491.141571,346.303772 492.156250,346.025909 
z"/>
<path fill="#F3CDAA" opacity="1.000000" stroke="none" 
	d="
M446.995941,372.603333 
	C446.449341,372.807281 445.788452,372.705902 445.069580,372.230103 
	C445.634949,372.003113 446.258331,372.150543 446.995941,372.603333 
z"/>
<path fill="#F3CDAA" opacity="1.000000" stroke="none" 
	d="
M440.275146,368.770752 
	C439.753662,368.912048 438.990997,368.771393 438.114197,368.237671 
	C438.678009,368.059296 439.355957,368.274048 440.275146,368.770752 
z"/>
<path fill="#F3CDAA" opacity="1.000000" stroke="none" 
	d="
M527.994385,364.149750 
	C527.552185,363.906250 527.141602,363.270355 526.901733,362.263855 
	C527.390259,362.514648 527.708191,363.136017 527.994385,364.149750 
z"/>
<path fill="#F3CDAA" opacity="1.000000" stroke="none" 
	d="
M527.090698,361.639709 
	C526.703064,361.436218 526.253845,360.868134 525.871216,359.902313 
	C526.301575,360.094727 526.665283,360.684906 527.090698,361.639709 
z"/>
<path fill="#F3CDAA" opacity="1.000000" stroke="none" 
	d="
M512.943054,346.533508 
	C512.338501,346.868042 511.575775,346.842407 510.635040,346.429840 
	C511.233002,346.086395 512.008911,346.129883 512.943054,346.533508 
z"/>
<path fill="#F3CDAA" opacity="1.000000" stroke="none" 
	d="
M489.641357,346.910950 
	C489.430054,347.317444 488.853180,347.783020 487.878296,348.147522 
	C488.078766,347.687622 488.677307,347.328796 489.641357,346.910950 
z"/>
<path fill="#F3CDAA" opacity="1.000000" stroke="none" 
	d="
M449.984619,374.565918 
	C449.637421,374.873627 449.156952,374.844269 448.564209,374.420715 
	C448.918396,374.093964 449.384888,374.161377 449.984619,374.565918 
z"/>
<path fill="#F3CDAA" opacity="1.000000" stroke="none" 
	d="
M514.271362,347.809753 
	C514.004456,347.912048 513.534241,347.765991 513.054077,347.239380 
	C513.385376,347.093018 513.726685,347.327209 514.271362,347.809753 
z"/>
<path fill="#F3CDAA" opacity="1.000000" stroke="none" 
	d="
M487.183899,347.996765 
	C487.243073,348.421112 486.938995,348.815796 486.257935,349.062988 
	C486.194214,348.599396 486.507446,348.283264 487.183899,347.996765 
z"/>
<path fill="#F3CDAA" opacity="1.000000" stroke="none" 
	d="
M516.253540,348.736572 
	C515.979065,348.959259 515.434021,348.875366 514.674438,348.423157 
	C514.967529,348.179901 515.475281,348.304932 516.253540,348.736572 
z"/>
<path fill="#F3CDAA" opacity="1.000000" stroke="none" 
	d="
M453.868073,379.074951 
	C453.534485,379.101868 453.270508,378.796539 453.015137,378.185425 
	C453.328400,378.167358 453.633057,378.455017 453.868073,379.074951 
z"/>
<path fill="#F3CDAA" opacity="1.000000" stroke="none" 
	d="
M453.044189,377.710876 
	C452.754486,377.826233 452.385834,377.669830 452.022186,377.191956 
	C452.339905,377.060028 452.652557,377.249542 453.044189,377.710876 
z"/>
<path fill="#F3CDAA" opacity="1.000000" stroke="none" 
	d="
M452.046692,376.704865 
	C451.749451,376.823761 451.369324,376.675232 451.014343,376.196259 
	C451.347595,376.056366 451.655731,376.246918 452.046692,376.704865 
z"/>
<path fill="#F3CDAA" opacity="1.000000" stroke="none" 
	d="
M451.055420,375.692108 
	C450.718475,375.823975 450.306763,375.692810 449.987549,375.214783 
	C450.380219,375.054993 450.680389,375.242035 451.055420,375.692108 
z"/>
<path fill="#F3CDAA" opacity="1.000000" stroke="none" 
	d="
M525.006775,357.186432 
	C524.575867,357.244110 524.173462,356.939819 523.933350,356.258270 
	C524.408936,356.195496 524.722046,356.509979 525.006775,357.186432 
z"/>
<path fill="#F3CDAA" opacity="1.000000" stroke="none" 
	d="
M448.290680,373.804962 
	C448.043060,373.895538 447.573059,373.747894 447.063782,373.225555 
	C447.372467,373.089478 447.720367,373.328125 448.290680,373.804962 
z"/>
<path fill="#F3CDAA" opacity="1.000000" stroke="none" 
	d="
M485.656006,348.966827 
	C485.728424,349.239807 485.498169,349.622986 484.887573,350.026917 
	C484.789307,349.724152 485.071350,349.400574 485.656006,348.966827 
z"/>
<path fill="#F3CDAA" opacity="1.000000" stroke="none" 
	d="
M517.986633,349.572998 
	C517.627747,349.882721 517.137329,349.852905 516.549316,349.422943 
	C516.919556,349.092987 517.387329,349.163239 517.986633,349.572998 
z"/>
<path fill="#F3CDAA" opacity="1.000000" stroke="none" 
	d="
M441.987000,369.602844 
	C441.653625,369.877686 441.182678,369.815399 440.579529,369.391510 
	C440.914703,369.108521 441.382019,369.187134 441.987000,369.602844 
z"/>
<path fill="#F3CDAA" opacity="1.000000" stroke="none" 
	d="
M519.050476,350.689148 
	C518.732483,350.820038 518.332642,350.690399 518.000244,350.213501 
	C518.367981,350.053711 518.668335,350.241150 519.050476,350.689148 
z"/>
<path fill="#F3CDAA" opacity="1.000000" stroke="none" 
	d="
M520.297119,351.804718 
	C520.044006,351.902344 519.567139,351.761200 519.056152,351.238220 
	C519.372498,351.092896 519.722900,351.329437 520.297119,351.804718 
z"/>
<path fill="#F3CDAA" opacity="1.000000" stroke="none" 
	d="
M396.658112,364.294342 
	C396.639923,364.254517 396.431671,364.178802 396.189972,364.295532 
	C396.156555,364.487946 396.468018,364.258453 396.658112,364.294342 
z"/>
<path fill="#F3CDAA" opacity="1.000000" stroke="none" 
	d="
M522.979248,354.604919 
	C522.712402,354.866638 522.302307,354.811218 521.692261,354.466187 
	C521.940186,354.213654 522.388062,354.250702 522.979248,354.604919 
z"/>
<path fill="#F3CDAA" opacity="1.000000" stroke="none" 
	d="
M524.055298,355.657715 
	C523.720703,355.808197 523.309509,355.696594 522.980713,355.225830 
	C523.368347,355.042969 523.673523,355.219299 524.055298,355.657715 
z"/>
</svg>